<svg xmlns="http://www.w3.org/2000/svg" xmlns:xlink="http://www.w3.org/1999/xlink" id="Capa_1" x="0px" y="0px" viewBox="0 0 512 512" style="enable-background:new 0 0 512 512;" xml:space="preserve"><style type="text/css">	.st0{fill:#1C355E;}	.st1{fill:#020203;}</style><g>	<g>		<polygon class="st0" points="224.7,191.7 294.4,191.7 289.6,180.9 228.8,180.9 188.6,180.9 187.4,180.9 187.4,184 147.7,285    189.4,285 193.5,274.2 196.8,274.2 208.5,246.9 204.2,245.9   "></polygon>		<g>			<polygon class="st0" points="301.8,256.1 275.3,256.1 268.1,273.3 231.5,273.3 259.2,206.5 298.6,206.5 296,196.4 257.4,196.4     257.4,196.4 234.3,196.6 204.5,274.2 204.4,285.2 225.4,285.2 226.6,285.2 314.3,285.2    "></polygon>			<polygon class="st0" points="275.7,252.8 301,253.1 288.6,223.9    "></polygon>			<polygon class="st0" points="301,211.6 294.4,211.6 288.2,211.6 287.9,211.6 281.3,211.6 264.3,211.6 240.9,267.8 264.5,267.8     284.8,219.1 291.5,219.1 321.1,285.8 331.3,285.8    "></polygon>		</g>		<path class="st0" d="M365.4,285.8c-1.2-2.9-30.5-71.7-31.8-74.9h-3.1h-19.5h-3.4l1.2,3l0,0l28.9,68.7l0,0l1.1,2.7L365.4,285.8z    M342.1,282.5l-29.9-68.7h19.5l28.8,68.6L342.1,282.5z"></path>		<path class="st0" d="M330.6,215.7l-0.1-0.3h-15.8l29.8,66l0.1,0.2H359L330.6,215.7z M316.1,216.3h6.4l28.6,64.5h-5.8L316.1,216.3z   "></path>		<g>			<path class="st0" d="M329.1,199.1l2.8,1.5c-0.9,1.8-2,3.3-3.2,4.4c-1.2,1.1-2.6,2-4.1,2.5c-1.5,0.6-3.2,0.9-5.1,0.9    c-4.2,0-7.5-1.4-9.9-4.2c-2.4-2.8-3.6-5.9-3.6-9.4c0-3.3,1-6.2,3-8.8c2.6-3.3,6-4.9,10.3-4.9c4.4,0,8,1.7,10.6,5    c1.9,2.4,2.8,5.3,2.9,8.9h-23.3c0.1,3,1,5.5,2.9,7.4c1.9,1.9,4.2,2.9,6.9,2.9c1.3,0,2.6-0.2,3.9-0.7c1.3-0.5,2.3-1.1,3.2-1.8    C327.1,202.1,328,200.8,329.1,199.1z M329.1,192.2c-0.4-1.8-1.1-3.2-1.9-4.3c-0.9-1.1-2-1.9-3.4-2.6c-1.4-0.7-2.9-1-4.4-1    c-2.5,0-4.7,0.8-6.6,2.5c-1.3,1.2-2.3,3-3,5.4L329.1,192.2L329.1,192.2z"></path>		</g>	</g>	<g>		<path class="st1" d="M166.6,295.1h7v1.7h-5.2v3.7h5.2v1.7h-5.2v6.2h-1.9L166.6,295.1L166.6,295.1z"></path>		<path class="st1" d="M180.9,303.1v3.7c0,0.3,0.1,0.4,0.3,0.4s0.5-0.2,1-0.5v1.1c-0.4,0.2-0.7,0.4-0.9,0.5   c-0.2,0.1-0.5,0.1-0.7,0.1c-0.7,0-1.2-0.3-1.3-0.9c-0.7,0.6-1.5,0.9-2.3,0.9c-0.6,0-1.1-0.2-1.5-0.6c-0.4-0.4-0.6-0.9-0.6-1.5   c0-0.5,0.2-1,0.6-1.5c0.4-0.4,1-0.8,1.7-1l2.2-0.8v-0.5c0-1-0.5-1.6-1.6-1.6c-0.9,0-1.9,0.5-2.7,1.5v-1.9c0.7-0.8,1.6-1.2,2.9-1.2   c0.9,0,1.7,0.2,2.3,0.7c0.2,0.2,0.4,0.4,0.5,0.6c0.1,0.3,0.2,0.5,0.3,0.8C180.9,301.9,180.9,302.4,180.9,303.1z M179.2,306.6V304   l-1.2,0.4c-0.6,0.2-1,0.5-1.2,0.7c-0.2,0.2-0.4,0.5-0.4,0.9s0.1,0.7,0.3,0.9s0.5,0.3,0.9,0.3C178.2,307.3,178.7,307,179.2,306.6z"></path>		<path class="st1" d="M190.2,306.3v1.7c-0.9,0.3-1.7,0.5-2.5,0.5c-1.4,0-2.5-0.4-3.3-1.2c-0.8-0.8-1.2-1.9-1.2-3.2   c0-1.4,0.4-2.5,1.2-3.3c0.8-0.8,1.8-1.3,3.1-1.3c0.4,0,0.9,0,1.2,0.1c0.4,0.1,0.8,0.2,1.3,0.5v1.8c-0.9-0.6-1.7-0.8-2.4-0.8   c-0.8,0-1.4,0.3-1.9,0.8c-0.5,0.5-0.7,1.2-0.7,2.1c0,0.9,0.3,1.6,0.8,2.1c0.5,0.5,1.3,0.8,2.2,0.8   C188.6,306.9,189.4,306.7,190.2,306.3z"></path>		<path class="st1" d="M197.7,308.3v-1.1c-0.4,0.4-0.8,0.7-1.3,0.9c-0.5,0.2-0.9,0.3-1.4,0.3c-0.5,0-1.1-0.1-1.5-0.4   c-0.5-0.3-0.8-0.6-1.1-1.1c-0.2-0.5-0.4-1.3-0.4-2.3v-5h1.7v5c0,0.9,0.1,1.5,0.4,1.9c0.3,0.4,0.7,0.5,1.4,0.5   c0.8,0,1.5-0.4,2.1-1.2v-6.2h1.7v8.7H197.7z"></path>		<path class="st1" d="M201.9,295.1h1.7v13.2h-1.7V295.1z"></path>		<path class="st1" d="M204.9,301l3.2-3.2v1.8h2.7v1.5h-2.7v4.3c0,1,0.4,1.5,1.2,1.5c0.6,0,1.3-0.2,2-0.6v1.6   c-0.7,0.4-1.4,0.6-2.2,0.6c-0.8,0-1.4-0.2-2-0.7c-0.2-0.1-0.3-0.3-0.4-0.5c-0.1-0.2-0.2-0.4-0.3-0.7c-0.1-0.3-0.1-0.8-0.1-1.6   v-3.9h-1.5L204.9,301L204.9,301z"></path>		<path class="st1" d="M218,303.1v3.7c0,0.3,0.1,0.4,0.3,0.4s0.5-0.2,1-0.5v1.1c-0.4,0.2-0.7,0.4-0.9,0.5c-0.2,0.1-0.5,0.1-0.7,0.1   c-0.7,0-1.2-0.3-1.3-0.9c-0.7,0.6-1.5,0.9-2.3,0.9c-0.6,0-1.1-0.2-1.5-0.6c-0.4-0.4-0.6-0.9-0.6-1.5c0-0.5,0.2-1,0.6-1.5   c0.4-0.4,1-0.8,1.7-1l2.2-0.8v-0.5c0-1-0.5-1.6-1.6-1.6c-0.9,0-1.9,0.5-2.7,1.5v-1.9c0.7-0.8,1.6-1.2,2.9-1.2   c0.9,0,1.7,0.2,2.3,0.7c0.2,0.2,0.4,0.4,0.5,0.6c0.1,0.3,0.2,0.5,0.3,0.8C218,301.9,218,302.4,218,303.1z M216.3,306.6V304   l-1.2,0.4c-0.6,0.2-1,0.5-1.2,0.7c-0.2,0.2-0.4,0.5-0.4,0.9s0.1,0.7,0.3,0.9s0.5,0.3,0.9,0.3C215.4,307.3,215.9,307,216.3,306.6z"></path>		<path class="st1" d="M226.6,295.1h1.7v13.2h-3.7c-1.3,0-2.3-0.4-3.1-1.2c-0.8-0.8-1.2-1.9-1.2-3.3c0-1.3,0.4-2.3,1.2-3.2   s1.8-1.2,3.1-1.2c0.6,0,1.2,0.1,1.9,0.4V295.1z M226.6,306.9v-5.5c-0.5-0.3-1.1-0.4-1.6-0.4c-0.9,0-1.5,0.3-2,0.8   c-0.5,0.6-0.8,1.3-0.8,2.3c0,0.9,0.2,1.6,0.7,2.1c0.3,0.3,0.5,0.5,0.8,0.6c0.3,0.1,0.8,0.1,1.6,0.1H226.6L226.6,306.9z"></path>		<path class="st1" d="M241.9,295.1h1.7v13.2h-3.7c-1.3,0-2.3-0.4-3.1-1.2c-0.8-0.8-1.2-1.9-1.2-3.3c0-1.3,0.4-2.3,1.2-3.2   s1.8-1.2,3.1-1.2c0.6,0,1.2,0.1,1.9,0.4V295.1z M241.9,306.9v-5.5c-0.5-0.3-1.1-0.4-1.6-0.4c-0.9,0-1.5,0.3-2,0.8   c-0.5,0.6-0.8,1.3-0.8,2.3c0,0.9,0.2,1.6,0.7,2.1c0.3,0.3,0.5,0.5,0.8,0.6c0.3,0.1,0.8,0.1,1.6,0.1H241.9L241.9,306.9z"></path>		<path class="st1" d="M253.4,304.1h-6.1c0,0.8,0.3,1.5,0.8,2c0.5,0.5,1.2,0.7,2,0.7c1.1,0,2.2-0.4,3.1-1.1v1.7   c-0.5,0.4-1.1,0.6-1.6,0.8c-0.5,0.1-1.1,0.2-1.8,0.2c-1,0-1.7-0.2-2.3-0.6c-0.6-0.4-1.1-0.9-1.4-1.6c-0.4-0.7-0.5-1.4-0.5-2.3   c0-1.3,0.4-2.4,1.1-3.2s1.7-1.2,2.9-1.2c1.2,0,2.1,0.4,2.8,1.2s1,1.9,1,3.2L253.4,304.1L253.4,304.1z M247.3,303.1h4.4   c0-0.7-0.2-1.2-0.6-1.6c-0.4-0.4-0.9-0.6-1.5-0.6c-0.6,0-1.1,0.2-1.5,0.6C247.7,301.9,247.4,302.4,247.3,303.1z"></path>		<path class="st1" d="M272.2,305.3v2.1c-1.4,0.8-3,1.1-4.8,1.1c-1.5,0-2.7-0.3-3.8-0.9c-1-0.6-1.8-1.4-2.4-2.5   c-0.6-1-0.9-2.2-0.9-3.4c0-1.9,0.7-3.5,2.1-4.9c1.4-1.3,3.1-2,5.1-2c1.4,0,2.9,0.4,4.6,1.1v2c-1.5-0.9-3.1-1.3-4.5-1.3   c-1.5,0-2.8,0.5-3.8,1.4c-1,1-1.5,2.2-1.5,3.6c0,1.4,0.5,2.6,1.5,3.6s2.2,1.4,3.8,1.4C269.1,306.7,270.7,306.2,272.2,305.3z"></path>		<path class="st1" d="M278.5,299.6c1.3,0,2.4,0.4,3.3,1.3c0.9,0.9,1.3,1.9,1.3,3.2c0,1.3-0.4,2.3-1.3,3.1c-0.9,0.8-2,1.2-3.4,1.2   c-1.3,0-2.4-0.4-3.3-1.3c-0.9-0.8-1.3-1.9-1.3-3.2c0-1.3,0.4-2.3,1.3-3.2C276,300,277.1,299.6,278.5,299.6z M278.4,301.2   c-0.8,0-1.5,0.3-2,0.8c-0.5,0.5-0.8,1.2-0.8,2.1c0,0.8,0.3,1.5,0.8,2c0.5,0.5,1.2,0.8,2.1,0.8c0.8,0,1.5-0.3,2.1-0.8   c0.5-0.5,0.8-1.2,0.8-2s-0.3-1.5-0.8-2.1C279.9,301.4,279.2,301.2,278.4,301.2z"></path>		<path class="st1" d="M286.7,299.6v1.1c0.8-0.9,1.6-1.3,2.6-1.3c0.5,0,1,0.1,1.5,0.4c0.5,0.3,0.8,0.7,1.1,1.2   c0.2,0.5,0.4,1.3,0.4,2.3v5h-1.7v-5c0-0.9-0.1-1.5-0.4-1.9c-0.3-0.4-0.7-0.6-1.4-0.6c-0.8,0-1.5,0.4-2.1,1.2v6.2H285v-8.7   L286.7,299.6L286.7,299.6z"></path>		<path class="st1" d="M293.5,301l3.2-3.2v1.8h2.7v1.5h-2.7v4.3c0,1,0.4,1.5,1.2,1.5c0.6,0,1.3-0.2,2-0.6v1.6   c-0.7,0.4-1.4,0.6-2.2,0.6c-0.8,0-1.4-0.2-2-0.7c-0.2-0.1-0.3-0.3-0.4-0.5s-0.2-0.4-0.3-0.7c-0.1-0.3-0.1-0.8-0.1-1.6v-3.9h-1.5   L293.5,301L293.5,301z"></path>		<path class="st1" d="M306.6,303.1v3.7c0,0.3,0.1,0.4,0.3,0.4s0.5-0.2,1-0.5v1.1c-0.4,0.2-0.7,0.4-0.9,0.5   c-0.2,0.1-0.5,0.1-0.7,0.1c-0.7,0-1.2-0.3-1.3-0.9c-0.7,0.6-1.5,0.9-2.3,0.9c-0.6,0-1.1-0.2-1.5-0.6c-0.4-0.4-0.6-0.9-0.6-1.5   c0-0.5,0.2-1,0.6-1.5c0.4-0.4,1-0.8,1.7-1l2.2-0.8v-0.5c0-1-0.5-1.6-1.6-1.6c-0.9,0-1.9,0.5-2.7,1.5v-1.9c0.7-0.8,1.6-1.2,2.9-1.2   c0.9,0,1.7,0.2,2.3,0.7c0.2,0.2,0.4,0.4,0.5,0.6c0.1,0.3,0.2,0.5,0.3,0.8C306.6,301.9,306.6,302.4,306.6,303.1z M304.9,306.6V304   l-1.2,0.4c-0.6,0.2-1,0.5-1.2,0.7c-0.2,0.2-0.4,0.5-0.4,0.9s0.1,0.7,0.3,0.9s0.5,0.3,0.9,0.3C303.9,307.3,304.4,307,304.9,306.6z"></path>		<path class="st1" d="M315.2,295.1h1.7v13.2h-3.7c-1.3,0-2.3-0.4-3.1-1.2c-0.8-0.8-1.2-1.9-1.2-3.3c0-1.3,0.4-2.3,1.2-3.2   s1.8-1.2,3.1-1.2c0.6,0,1.2,0.1,1.9,0.4L315.2,295.1L315.2,295.1z M315.2,306.9v-5.5c-0.5-0.3-1.1-0.4-1.6-0.4   c-0.9,0-1.5,0.3-2,0.8c-0.5,0.6-0.8,1.3-0.8,2.3c0,0.9,0.2,1.6,0.7,2.1c0.3,0.3,0.5,0.5,0.8,0.6c0.3,0.1,0.8,0.1,1.6,0.1H315.2   L315.2,306.9z"></path>		<path class="st1" d="M324.8,308.3v-1.1c-0.4,0.4-0.8,0.7-1.3,0.9c-0.5,0.2-0.9,0.3-1.4,0.3c-0.5,0-1.1-0.1-1.5-0.4   c-0.5-0.3-0.8-0.6-1.1-1.1c-0.2-0.5-0.4-1.3-0.4-2.3v-5h1.7v5c0,0.9,0.1,1.5,0.4,1.9c0.3,0.4,0.7,0.5,1.4,0.5   c0.8,0,1.5-0.4,2.1-1.2v-6.2h1.7v8.7H324.8z"></path>		<path class="st1" d="M330.8,299.6v2l0.1-0.1c0.8-1.3,1.7-2,2.5-2c0.6,0,1.3,0.3,2,1l-0.9,1.5c-0.6-0.6-1.2-0.9-1.7-0.9   c-0.6,0-1,0.3-1.4,0.8c-0.4,0.5-0.6,1.2-0.6,1.9v4.5H329v-8.7L330.8,299.6L330.8,299.6z"></path>		<path class="st1" d="M336.6,299.6h1.7v8.7h-1.7V299.6z M340.3,294.9l-2.1,2.8h-1.1l1.3-2.8H340.3z"></path>		<path class="st1" d="M346.3,303.1v3.7c0,0.3,0.1,0.4,0.3,0.4s0.5-0.2,1-0.5v1.1c-0.4,0.2-0.7,0.4-0.9,0.5   c-0.2,0.1-0.5,0.1-0.7,0.1c-0.7,0-1.2-0.3-1.3-0.9c-0.7,0.6-1.5,0.9-2.3,0.9c-0.6,0-1.1-0.2-1.5-0.6c-0.4-0.4-0.6-0.9-0.6-1.5   c0-0.5,0.2-1,0.6-1.5c0.4-0.4,1-0.8,1.7-1l2.2-0.8v-0.5c0-1-0.5-1.6-1.6-1.6c-0.9,0-1.9,0.5-2.7,1.5v-1.9c0.7-0.8,1.6-1.2,2.9-1.2   c0.9,0,1.7,0.2,2.3,0.7c0.2,0.2,0.4,0.4,0.5,0.6c0.1,0.3,0.2,0.5,0.3,0.8C346.3,301.9,346.3,302.4,346.3,303.1z M344.6,306.6V304   l-1.2,0.4c-0.6,0.2-1,0.5-1.2,0.7c-0.2,0.2-0.4,0.5-0.4,0.9s0.1,0.7,0.3,0.9s0.5,0.3,0.9,0.3C343.7,307.3,344.2,307,344.6,306.6z"></path>		<path class="st1" d="M148.7,318.3h1.3l5.9,13.3H154l-1.8-3.9h-5.6l-1.6,3.9H143L148.7,318.3z M151.5,326l-2.1-4.8l-2,4.8H151.5z"></path>		<path class="st1" d="M163,318.4h1.7v13.2H161c-1.3,0-2.3-0.4-3.1-1.2c-0.8-0.8-1.2-1.9-1.2-3.3c0-1.3,0.4-2.3,1.2-3.2   s1.8-1.2,3.1-1.2c0.6,0,1.2,0.1,1.9,0.4V318.4z M163,330.1v-5.5c-0.5-0.3-1.1-0.4-1.6-0.4c-0.9,0-1.5,0.3-2,0.8s-0.8,1.3-0.8,2.3   c0,0.9,0.2,1.6,0.7,2.1c0.3,0.3,0.5,0.5,0.8,0.6s0.8,0.1,1.6,0.1L163,330.1L163,330.1z"></path>		<path class="st1" d="M174.2,325.3v6.3h-1.7v-4.8c0-1-0.1-1.6-0.4-2c-0.3-0.4-0.7-0.6-1.3-0.6c-0.4,0-0.7,0.1-1,0.2s-0.6,0.5-1,0.9   v6.3h-1.7v-8.7h1.7v1.1c0.9-0.9,1.7-1.3,2.6-1.3c1.1,0,2,0.5,2.6,1.6c0.9-1.1,1.9-1.6,2.9-1.6c0.8,0,1.5,0.3,2.1,0.9   c0.5,0.6,0.8,1.6,0.8,2.8v5.1h-1.7v-5.2c0-0.7-0.1-1.3-0.4-1.7c-0.3-0.4-0.7-0.6-1.3-0.6C175.4,324.2,174.8,324.5,174.2,325.3z"></path>		<path class="st1" d="M182.8,319.2c0.3,0,0.5,0.1,0.7,0.3c0.2,0.2,0.3,0.4,0.3,0.7c0,0.3-0.1,0.5-0.3,0.7c-0.2,0.2-0.4,0.3-0.7,0.3   c-0.3,0-0.5-0.1-0.7-0.3c-0.2-0.2-0.3-0.4-0.3-0.7c0-0.3,0.1-0.5,0.3-0.7C182.3,319.3,182.6,319.2,182.8,319.2z M182,322.9h1.7   v8.7H182V322.9z"></path>		<path class="st1" d="M187.9,322.9v1.1c0.8-0.9,1.6-1.3,2.6-1.3c0.5,0,1,0.1,1.5,0.4c0.5,0.3,0.8,0.7,1.1,1.2   c0.2,0.5,0.4,1.3,0.4,2.3v5h-1.7v-5c0-0.9-0.1-1.5-0.4-1.9c-0.3-0.4-0.7-0.6-1.4-0.6c-0.8,0-1.5,0.4-2.1,1.2v6.2h-1.8v-8.7   L187.9,322.9L187.9,322.9z"></path>		<path class="st1" d="M196.8,319.2c0.3,0,0.5,0.1,0.7,0.3c0.2,0.2,0.3,0.4,0.3,0.7c0,0.3-0.1,0.5-0.3,0.7c-0.2,0.2-0.4,0.3-0.7,0.3   c-0.3,0-0.5-0.1-0.7-0.3c-0.2-0.2-0.3-0.4-0.3-0.7c0-0.3,0.1-0.5,0.3-0.7C196.3,319.3,196.5,319.2,196.8,319.2z M195.9,322.9h1.7   v8.7h-1.7V322.9z"></path>		<path class="st1" d="M199.7,330.9v-1.9c0.5,0.3,1,0.6,1.5,0.8c0.5,0.2,0.9,0.3,1.3,0.3c0.4,0,0.7-0.1,0.9-0.3s0.4-0.4,0.4-0.6   c0-0.2-0.1-0.5-0.2-0.6c-0.2-0.2-0.5-0.4-1.1-0.7c-1.1-0.6-1.8-1.1-2.2-1.6c-0.3-0.4-0.5-0.9-0.5-1.4c0-0.7,0.3-1.2,0.8-1.6   c0.5-0.4,1.2-0.6,2-0.6c0.9,0,1.7,0.2,2.6,0.7v1.7c-1-0.6-1.9-0.9-2.5-0.9c-0.3,0-0.6,0.1-0.8,0.2c-0.2,0.1-0.3,0.3-0.3,0.6   c0,0.2,0.1,0.4,0.3,0.6c0.2,0.2,0.5,0.4,1,0.7l0.6,0.3c1.4,0.8,2.2,1.7,2.2,2.7c0,0.7-0.3,1.3-0.8,1.8c-0.6,0.5-1.3,0.7-2.2,0.7   c-0.5,0-1-0.1-1.4-0.2C200.8,331.5,200.3,331.2,199.7,330.9z"></path>		<path class="st1" d="M206.4,324.2l3.2-3.2v1.8h2.7v1.5h-2.7v4.3c0,1,0.4,1.5,1.2,1.5c0.6,0,1.3-0.2,2-0.6v1.6   c-0.7,0.4-1.4,0.6-2.2,0.6c-0.8,0-1.4-0.2-2-0.7c-0.2-0.1-0.3-0.3-0.4-0.5c-0.1-0.2-0.2-0.4-0.3-0.7s-0.1-0.8-0.1-1.6v-3.9h-1.5   V324.2L206.4,324.2z"></path>		<path class="st1" d="M215.9,322.9v2l0.1-0.1c0.8-1.3,1.7-2,2.5-2c0.6,0,1.3,0.3,2,1l-0.9,1.5c-0.6-0.6-1.2-0.9-1.7-0.9   c-0.6,0-1,0.3-1.4,0.8c-0.4,0.5-0.6,1.2-0.6,1.9v4.5h-1.7v-8.7L215.9,322.9L215.9,322.9z"></path>		<path class="st1" d="M227.2,326.3v3.7c0,0.3,0.1,0.4,0.3,0.4s0.5-0.2,1-0.5v1.1c-0.4,0.2-0.7,0.4-0.9,0.5   c-0.2,0.1-0.5,0.1-0.7,0.1c-0.7,0-1.2-0.3-1.3-0.9c-0.7,0.6-1.5,0.9-2.3,0.9c-0.6,0-1.1-0.2-1.5-0.6c-0.4-0.4-0.6-0.9-0.6-1.5   c0-0.5,0.2-1,0.6-1.5c0.4-0.4,1-0.8,1.7-1l2.2-0.8v-0.5c0-1-0.5-1.6-1.6-1.6c-0.9,0-1.9,0.5-2.7,1.5v-1.9c0.7-0.8,1.6-1.2,2.9-1.2   c0.9,0,1.7,0.2,2.3,0.7c0.2,0.2,0.4,0.4,0.5,0.6c0.1,0.3,0.2,0.5,0.3,0.8C227.1,325.1,227.2,325.6,227.2,326.3z M225.5,329.9v-2.6   l-1.2,0.4c-0.6,0.2-1,0.5-1.2,0.7c-0.2,0.2-0.4,0.5-0.4,0.9s0.1,0.7,0.3,0.9c0.2,0.2,0.5,0.3,0.9,0.3   C224.5,330.5,225,330.3,225.5,329.9z"></path>		<path class="st1" d="M236.5,329.5v1.7c-0.9,0.3-1.7,0.5-2.5,0.5c-1.4,0-2.5-0.4-3.3-1.2c-0.8-0.8-1.2-1.9-1.2-3.2   c0-1.4,0.4-2.5,1.2-3.3c0.8-0.8,1.8-1.3,3.1-1.3c0.4,0,0.9,0,1.2,0.1s0.8,0.2,1.3,0.5v1.8c-0.9-0.6-1.7-0.8-2.4-0.8   c-0.8,0-1.4,0.3-1.9,0.8s-0.7,1.2-0.7,2.1c0,0.9,0.3,1.6,0.8,2.1c0.5,0.5,1.3,0.8,2.2,0.8C234.9,330.1,235.6,329.9,236.5,329.5z"></path>		<path class="st1" d="M239.3,319.2c0.3,0,0.5,0.1,0.7,0.3c0.2,0.2,0.3,0.4,0.3,0.7c0,0.3-0.1,0.5-0.3,0.7c-0.2,0.2-0.4,0.3-0.7,0.3   c-0.3,0-0.5-0.1-0.7-0.3c-0.2-0.2-0.3-0.4-0.3-0.7c0-0.3,0.1-0.5,0.3-0.7C238.8,319.3,239.1,319.2,239.3,319.2z M238.5,322.9h1.7   v8.7h-1.7V322.9z"></path>		<path class="st1" d="M246.8,322.8c1.3,0,2.4,0.4,3.3,1.3c0.9,0.9,1.3,1.9,1.3,3.2c0,1.3-0.4,2.3-1.3,3.1c-0.9,0.8-2,1.2-3.4,1.2   c-1.3,0-2.4-0.4-3.3-1.3c-0.9-0.8-1.3-1.9-1.3-3.2c0-1.3,0.4-2.3,1.3-3.2C244.4,323.3,245.5,322.8,246.8,322.8z M246.7,324.4   c-0.8,0-1.5,0.3-2,0.8c-0.5,0.5-0.8,1.2-0.8,2.1c0,0.8,0.3,1.5,0.8,2c0.5,0.5,1.2,0.8,2.1,0.8s1.5-0.3,2.1-0.8   c0.5-0.5,0.8-1.2,0.8-2s-0.3-1.5-0.8-2.1C248.3,324.7,247.6,324.4,246.7,324.4z M248.8,318.2l-2.1,2.8h-1.1l1.3-2.8H248.8z"></path>		<path class="st1" d="M255.1,322.9v1.1c0.8-0.9,1.6-1.3,2.6-1.3c0.5,0,1,0.1,1.5,0.4c0.5,0.3,0.8,0.7,1.1,1.2   c0.2,0.5,0.4,1.3,0.4,2.3v5h-1.7v-5c0-0.9-0.1-1.5-0.4-1.9c-0.3-0.4-0.7-0.6-1.4-0.6c-0.8,0-1.5,0.4-2.1,1.2v6.2h-1.8v-8.7   L255.1,322.9L255.1,322.9z"></path>		<path class="st1" d="M275.8,327.4h-6.1c0,0.8,0.3,1.5,0.8,2c0.5,0.5,1.2,0.7,2,0.7c1.1,0,2.2-0.4,3.1-1.1v1.7   c-0.5,0.4-1.1,0.6-1.6,0.8c-0.5,0.1-1.1,0.2-1.8,0.2c-1,0-1.7-0.2-2.3-0.6c-0.6-0.4-1.1-0.9-1.4-1.6s-0.5-1.4-0.5-2.3   c0-1.3,0.4-2.4,1.1-3.2c0.8-0.8,1.7-1.2,2.9-1.2c1.2,0,2.1,0.4,2.8,1.2c0.7,0.8,1,1.9,1,3.2L275.8,327.4L275.8,327.4z    M269.8,326.3h4.4c0-0.7-0.2-1.2-0.6-1.6c-0.4-0.4-0.9-0.6-1.5-0.6c-0.6,0-1.1,0.2-1.5,0.6C270.1,325.1,269.9,325.7,269.8,326.3z"></path>		<path class="st1" d="M283.3,318.4h1.9v13.2h-1.9V318.4z"></path>		<path class="st1" d="M289.6,322.9v1.1c0.8-0.9,1.6-1.3,2.6-1.3c0.5,0,1,0.1,1.5,0.4c0.5,0.3,0.8,0.7,1.1,1.2   c0.2,0.5,0.4,1.3,0.4,2.3v5h-1.7v-5c0-0.9-0.1-1.5-0.4-1.9c-0.3-0.4-0.7-0.6-1.4-0.6c-0.8,0-1.5,0.4-2.1,1.2v6.2h-1.8v-8.7   L289.6,322.9L289.6,322.9z"></path>		<path class="st1" d="M297.8,322.9v-0.5c0-1.4,0.3-2.4,0.9-3.1c0.6-0.7,1.3-1,2.1-1c0.4,0,0.8,0.1,1.3,0.2v1.7   c-0.3-0.1-0.5-0.1-0.8-0.1c-0.7,0-1.1,0.2-1.4,0.5s-0.4,1-0.4,1.9v0.5h1.5v1.5h-1.5v7.2h-1.7v-7.2h-1.3v-1.5L297.8,322.9   L297.8,322.9z"></path>		<path class="st1" d="M306.4,322.8c1.3,0,2.4,0.4,3.3,1.3c0.9,0.9,1.3,1.9,1.3,3.2c0,1.3-0.4,2.3-1.3,3.1c-0.9,0.8-2,1.2-3.4,1.2   c-1.3,0-2.4-0.4-3.3-1.3c-0.9-0.8-1.3-1.9-1.3-3.2c0-1.3,0.4-2.3,1.3-3.2C304,323.3,305.1,322.8,306.4,322.8z M306.3,324.4   c-0.8,0-1.5,0.3-2,0.8c-0.5,0.5-0.8,1.2-0.8,2.1c0,0.8,0.3,1.5,0.8,2c0.5,0.5,1.2,0.8,2.1,0.8c0.8,0,1.5-0.3,2.1-0.8   c0.5-0.5,0.8-1.2,0.8-2s-0.3-1.5-0.8-2.1C307.9,324.7,307.2,324.4,306.3,324.4z"></path>		<path class="st1" d="M314.8,322.9v2l0.1-0.1c0.8-1.3,1.7-2,2.5-2c0.6,0,1.3,0.3,2,1l-0.9,1.5c-0.6-0.6-1.2-0.9-1.7-0.9   c-0.6,0-1,0.3-1.4,0.8s-0.6,1.2-0.6,1.9v4.5H313v-8.7L314.8,322.9L314.8,322.9z"></path>		<path class="st1" d="M327.7,325.3v6.3H326v-4.8c0-1-0.1-1.6-0.4-2s-0.7-0.6-1.3-0.6c-0.4,0-0.7,0.1-1,0.2c-0.3,0.2-0.6,0.5-1,0.9   v6.3h-1.7v-8.7h1.7v1.1c0.9-0.9,1.7-1.3,2.6-1.3c1.1,0,2,0.5,2.6,1.6c0.9-1.1,1.9-1.6,2.9-1.6c0.8,0,1.5,0.3,2.1,0.9   s0.8,1.6,0.8,2.8v5.1h-1.7v-5.2c0-0.7-0.1-1.3-0.4-1.7s-0.7-0.6-1.3-0.6C329,324.2,328.3,324.5,327.7,325.3z"></path>		<path class="st1" d="M341,326.3v3.7c0,0.3,0.1,0.4,0.3,0.4s0.5-0.2,1-0.5v1.1c-0.4,0.2-0.7,0.4-0.9,0.5c-0.2,0.1-0.5,0.1-0.7,0.1   c-0.7,0-1.2-0.3-1.3-0.9c-0.7,0.6-1.5,0.9-2.3,0.9c-0.6,0-1.1-0.2-1.5-0.6c-0.4-0.4-0.6-0.9-0.6-1.5c0-0.5,0.2-1,0.6-1.5   c0.4-0.4,1-0.8,1.7-1l2.2-0.8v-0.5c0-1-0.5-1.6-1.6-1.6c-0.9,0-1.9,0.5-2.7,1.5v-1.9c0.7-0.8,1.6-1.2,2.9-1.2   c0.9,0,1.7,0.2,2.3,0.7c0.2,0.2,0.4,0.4,0.5,0.6c0.1,0.3,0.2,0.5,0.3,0.8C341,325.1,341,325.6,341,326.3z M339.3,329.9v-2.6   l-1.2,0.4c-0.6,0.2-1,0.5-1.2,0.7c-0.2,0.2-0.4,0.5-0.4,0.9s0.1,0.7,0.3,0.9c0.2,0.2,0.5,0.3,0.9,0.3   C338.3,330.5,338.8,330.3,339.3,329.9z M340.6,318.2l-2.1,2.8h-1.1l1.3-2.8H340.6z"></path>		<path class="st1" d="M342.6,324.2l3.2-3.2v1.8h2.7v1.5h-2.7v4.3c0,1,0.4,1.5,1.2,1.5c0.6,0,1.3-0.2,2-0.6v1.6   c-0.7,0.4-1.4,0.6-2.2,0.6c-0.8,0-1.4-0.2-2-0.7c-0.2-0.1-0.3-0.3-0.4-0.5c-0.1-0.2-0.2-0.4-0.3-0.7s-0.1-0.8-0.1-1.6v-3.9h-1.5   V324.2L342.6,324.2z"></path>		<path class="st1" d="M351.1,319.2c0.3,0,0.5,0.1,0.7,0.3c0.2,0.2,0.3,0.4,0.3,0.7c0,0.3-0.1,0.5-0.3,0.7c-0.2,0.2-0.4,0.3-0.7,0.3   c-0.3,0-0.5-0.1-0.7-0.3c-0.2-0.2-0.3-0.4-0.3-0.7c0-0.3,0.1-0.5,0.3-0.7C350.6,319.3,350.9,319.2,351.1,319.2z M350.3,322.9h1.7   v8.7h-1.7V322.9z"></path>		<path class="st1" d="M361,329.5v1.7c-0.9,0.3-1.7,0.5-2.5,0.5c-1.4,0-2.5-0.4-3.3-1.2c-0.8-0.8-1.2-1.9-1.2-3.2   c0-1.4,0.4-2.5,1.2-3.3c0.8-0.8,1.8-1.3,3.1-1.3c0.4,0,0.9,0,1.2,0.1c0.4,0.1,0.8,0.2,1.3,0.5v1.8c-0.9-0.6-1.7-0.8-2.4-0.8   c-0.8,0-1.4,0.3-1.9,0.8c-0.5,0.5-0.7,1.2-0.7,2.1c0,0.9,0.3,1.6,0.8,2.1c0.5,0.5,1.3,0.8,2.2,0.8   C359.4,330.1,360.2,329.9,361,329.5z"></path>		<path class="st1" d="M368.4,326.3v3.7c0,0.3,0.1,0.4,0.3,0.4s0.5-0.2,1-0.5v1.1c-0.4,0.2-0.7,0.4-0.9,0.5s-0.5,0.1-0.7,0.1   c-0.7,0-1.2-0.3-1.3-0.9c-0.7,0.6-1.5,0.9-2.3,0.9c-0.6,0-1.1-0.2-1.5-0.6c-0.4-0.4-0.6-0.9-0.6-1.5c0-0.5,0.2-1,0.6-1.5   c0.4-0.4,1-0.8,1.7-1l2.2-0.8v-0.5c0-1-0.5-1.6-1.6-1.6c-0.9,0-1.9,0.5-2.7,1.5v-1.9c0.7-0.8,1.6-1.2,2.9-1.2   c0.9,0,1.7,0.2,2.3,0.7c0.2,0.2,0.4,0.4,0.5,0.6c0.1,0.3,0.2,0.5,0.3,0.8C368.4,325.1,368.4,325.6,368.4,326.3z M366.7,329.9v-2.6   l-1.2,0.4c-0.6,0.2-1,0.5-1.2,0.7c-0.2,0.2-0.4,0.5-0.4,0.9s0.1,0.7,0.3,0.9c0.2,0.2,0.5,0.3,0.9,0.3   C365.8,330.5,366.3,330.3,366.7,329.9z"></path>	</g></g></svg>