<svg xmlns="http://www.w3.org/2000/svg" xmlns:xlink="http://www.w3.org/1999/xlink" id="Capa_1" x="0px" y="0px" viewBox="0 0 512 512" style="enable-background:new 0 0 512 512;" xml:space="preserve"><style type="text/css">	.st0{fill:#2AA0DD;}</style><g>	<path class="st0" d="M19.7,357.3l-1.3,1.2c-0.9-0.9-1.9-1.4-3-1.4c-0.9,0-1.7,0.3-2.4,1c-0.6,0.6-1,1.4-1,2.3  c0,0.7,0.1,1.2,0.4,1.7c0.3,0.5,0.7,0.9,1.2,1.2c0.5,0.3,1.1,0.4,1.7,0.4c0.5,0,1-0.1,1.5-0.3c0.4-0.2,0.9-0.6,1.5-1.1l1.3,1.3  c-0.7,0.7-1.4,1.2-2,1.5s-1.4,0.4-2.2,0.4c-1.5,0-2.8-0.5-3.7-1.4c-1-1-1.4-2.2-1.4-3.7c0-1,0.2-1.8,0.7-2.6  c0.4-0.8,1.1-1.4,1.9-1.8c0.8-0.5,1.7-0.7,2.6-0.7c0.8,0,1.6,0.2,2.3,0.5C18.5,356.2,19.1,356.7,19.7,357.3L19.7,357.3z   M21.2,355.6H23v9.8h-1.8V355.6L21.2,355.6z M25.1,355.6H27v6.3c0,0.5,0,0.9,0.1,1.2c0.1,0.2,0.3,0.4,0.5,0.5s0.5,0.2,0.8,0.2  s0.6-0.1,0.8-0.2c0.2-0.1,0.4-0.3,0.5-0.6c0.1-0.2,0.1-0.7,0.1-1.3v-6.1h1.9v5.8c0,1-0.1,1.7-0.2,2c-0.1,0.4-0.3,0.7-0.6,1.1  c-0.3,0.4-0.7,0.6-1.1,0.8c-0.4,0.2-0.9,0.3-1.4,0.3c-0.7,0-1.3-0.2-1.8-0.5s-0.9-0.7-1.1-1.2s-0.3-1.3-0.3-2.5L25.1,355.6  L25.1,355.6z M33.8,355.6H36c1.4,0,2.5,0.2,3.2,0.5c0.7,0.4,1.3,0.9,1.7,1.7s0.7,1.7,0.7,2.8c0,0.8-0.1,1.4-0.4,2.1  c-0.3,0.6-0.6,1.2-1,1.6s-0.9,0.7-1.4,0.9c-0.5,0.2-1.4,0.2-2.7,0.2h-2.2L33.8,355.6L33.8,355.6z M35.7,357.4v6.2h0.9  c0.8,0,1.5-0.1,1.8-0.3c0.4-0.2,0.7-0.5,0.9-1s0.4-1,0.4-1.7c0-1-0.3-1.8-0.9-2.4c-0.5-0.5-1.4-0.8-2.5-0.8L35.7,357.4L35.7,357.4z   M46.3,355.6h1.9l3.8,9.8h-2l-0.8-2h-4l-0.8,2h-1.9L46.3,355.6L46.3,355.6z M47.3,358.2l-1.3,3.4h2.6L47.3,358.2L47.3,358.2z   M53.4,355.6h2.2c1.4,0,2.5,0.2,3.2,0.5c0.7,0.4,1.3,0.9,1.7,1.7c0.4,0.8,0.7,1.7,0.7,2.8c0,0.8-0.1,1.4-0.4,2.1  c-0.3,0.6-0.6,1.2-1,1.6s-0.9,0.7-1.4,0.9c-0.5,0.2-1.4,0.2-2.7,0.2h-2.2L53.4,355.6L53.4,355.6z M55.3,357.4v6.2h0.9  c0.8,0,1.5-0.1,1.8-0.3c0.4-0.2,0.7-0.5,0.9-1s0.4-1,0.4-1.7c0-1-0.3-1.8-0.9-2.4c-0.5-0.5-1.4-0.8-2.5-0.8L55.3,357.4L55.3,357.4z   M62.9,355.6h5.3v1.8h-3.5v1.8h3.5v1.8h-3.5v2.6h3.5v1.8h-5.3L62.9,355.6L62.9,355.6z M75.1,356.9l-1.4,1.2c-0.5-0.7-1-1-1.5-1  c-0.3,0-0.4,0.1-0.6,0.2c-0.1,0.1-0.2,0.3-0.2,0.4c0,0.2,0.1,0.3,0.2,0.5s0.6,0.6,1.4,1.2c0.7,0.6,1.1,1,1.3,1.1  c0.4,0.4,0.6,0.7,0.8,1.1c0.2,0.4,0.2,0.7,0.2,1.1c0,0.8-0.3,1.5-0.8,2s-1.3,0.8-2.2,0.8c-0.7,0-1.3-0.2-1.8-0.5s-1-0.9-1.3-1.6  l1.6-1c0.5,0.9,1,1.3,1.6,1.3c0.3,0,0.6-0.1,0.8-0.3c0.2-0.2,0.3-0.4,0.3-0.6s-0.1-0.4-0.3-0.7c-0.2-0.2-0.5-0.6-1.1-1  c-1.1-0.9-1.8-1.5-2.1-2c-0.3-0.5-0.5-0.9-0.5-1.4c0-0.7,0.3-1.3,0.8-1.7c0.5-0.5,1.2-0.7,1.9-0.7c0.5,0,1,0.1,1.4,0.3  C74.1,355.9,74.6,356.3,75.1,356.9L75.1,356.9z M80.7,355.6h1.8v9.8h-1.8V355.6L80.7,355.6z M84.7,355.6h1.8l4.2,6.4v-6.4h1.8v9.8  h-1.8l-4.2-6.4v6.4h-1.8V355.6L84.7,355.6z M93.8,355.6h5.4v1.8h-1.8v7.9h-1.9v-7.9h-1.7V355.6L93.8,355.6z M100.4,355.6h5.3v1.8  h-3.5v1.8h3.5v1.8h-3.5v2.6h3.5v1.8h-5.3V355.6L100.4,355.6z M107.5,355.6h1.8v8h2.7v1.8h-4.6L107.5,355.6L107.5,355.6z   M113.3,355.6h1.8v9.8h-1.8V355.6L113.3,355.6z M126.3,357.2l-1.3,1.3c-0.8-0.9-1.8-1.3-2.9-1.3c-1,0-1.8,0.3-2.4,1  c-0.7,0.6-1,1.4-1,2.3s0.3,1.7,1,2.4c0.7,0.7,1.5,1,2.5,1c0.6,0,1.2-0.1,1.6-0.4s0.8-0.7,1.1-1.3h-2.8v-1.7h4.9v0.4  c0,0.9-0.2,1.7-0.7,2.4c-0.4,0.8-1,1.3-1.7,1.8c-0.7,0.4-1.5,0.6-2.5,0.6s-1.9-0.2-2.7-0.7c-0.8-0.4-1.4-1.1-1.9-1.9  s-0.7-1.7-0.7-2.6c0-1.3,0.4-2.4,1.3-3.4c1-1.1,2.3-1.7,4-1.7c0.8,0,1.6,0.2,2.4,0.5C125.1,356.1,125.7,356.6,126.3,357.2  L126.3,357.2z M128.7,355.6h5.3v1.8h-3.5v1.8h3.5v1.8h-3.5v2.6h3.5v1.8h-5.3V355.6L128.7,355.6z M135.8,355.6h1.8l4.2,6.4v-6.4h1.8  v9.8h-1.8l-4.2-6.4v6.4h-1.8V355.6L135.8,355.6z M144.8,355.6h5.4v1.8h-1.8v7.9h-1.9v-7.9h-1.7V355.6L144.8,355.6z M151.5,355.6  h5.3v1.8h-3.5v1.8h3.5v1.8h-3.5v2.6h3.5v1.8h-5.3V355.6L151.5,355.6z M163.7,356.9l-1.4,1.2c-0.5-0.7-1-1-1.5-1  c-0.3,0-0.4,0.1-0.6,0.2c-0.2,0.1-0.2,0.3-0.2,0.4c0,0.2,0.1,0.3,0.2,0.5c0.1,0.2,0.6,0.6,1.4,1.2c0.7,0.6,1.1,1,1.3,1.1  c0.4,0.4,0.6,0.7,0.8,1.1s0.2,0.7,0.2,1.1c0,0.8-0.3,1.5-0.8,2s-1.3,0.8-2.2,0.8c-0.7,0-1.3-0.2-1.8-0.5s-1-0.9-1.3-1.6l1.6-1  c0.5,0.9,1,1.3,1.6,1.3c0.3,0,0.6-0.1,0.8-0.3c0.2-0.2,0.3-0.4,0.3-0.6s-0.1-0.4-0.3-0.7c-0.2-0.2-0.5-0.6-1.1-1  c-1.1-0.9-1.8-1.5-2.1-2s-0.5-0.9-0.5-1.4c0-0.7,0.3-1.3,0.8-1.7c0.5-0.5,1.2-0.7,1.9-0.7c0.5,0,1,0.1,1.4,0.3  C162.7,355.9,163.2,356.3,163.7,356.9L163.7,356.9z M168.5,355.6h5.4v1.8h-1.8v7.9h-1.9v-7.9h-1.7V355.6L168.5,355.6z M179.8,355.4  c1.4,0,2.6,0.5,3.6,1.5s1.5,2.2,1.5,3.7c0,1.4-0.5,2.6-1.5,3.6s-2.2,1.5-3.6,1.5c-1.5,0-2.7-0.5-3.7-1.5s-1.5-2.2-1.5-3.6  c0-0.9,0.2-1.8,0.7-2.6c0.4-0.8,1.1-1.4,1.9-1.9C178,355.6,178.9,355.4,179.8,355.4L179.8,355.4z M179.7,357.2  c-0.9,0-1.7,0.3-2.3,1c-0.6,0.6-0.9,1.4-0.9,2.4c0,1.1,0.4,1.9,1.2,2.6c0.6,0.5,1.3,0.7,2.1,0.7c0.9,0,1.6-0.3,2.2-1  c0.6-0.6,0.9-1.4,0.9-2.3s-0.3-1.7-0.9-2.4C181.4,357.5,180.6,357.2,179.7,357.2L179.7,357.2z M185.6,355.6h5.4v1.8h-1.8v7.9h-1.9  v-7.9h-1.7V355.6L185.6,355.6z M195.3,355.6h1.9l3.8,9.8h-2l-0.8-2h-4l-0.8,2h-1.9L195.3,355.6L195.3,355.6z M196.2,358.2l-1.3,3.4  h2.6L196.2,358.2L196.2,358.2z M202.3,355.6h1.8v8h2.7v1.8h-4.6v-9.8H202.3z M209.2,355.6h1.8l2.3,6.8l2.3-6.8h1.8l1.6,9.8h-1.8  l-1-6.2l-2.1,6.2h-1.6l-2.1-6.2l-1.1,6.2h-1.8L209.2,355.6L209.2,355.6z M220.6,355.6h5.3v1.8h-3.5v1.8h3.5v1.8h-3.5v2.6h3.5v1.8  h-5.3V355.6L220.6,355.6z M227.6,355.6h1.8l4.2,6.4v-6.4h1.8v9.8h-1.8l-4.2-6.4v6.4h-1.8V355.6L227.6,355.6z M236.7,355.6h5.4v1.8  h-1.8v7.9h-1.9v-7.9h-1.7V355.6L236.7,355.6z M243.4,355.6h5.3v1.8h-3.5v1.8h3.5v1.8h-3.5v2.6h3.5v1.8h-5.3V355.6L243.4,355.6z   M254.1,355.6h1.8v9.8h-1.8V355.6L254.1,355.6z M258.1,355.6h1.8l4.2,6.4v-6.4h1.8v9.8h-1.8l-4.2-6.4v6.4h-1.8V355.6L258.1,355.6z   M267.2,355.6h5.4v1.8h-1.8v7.9h-1.9v-7.9h-1.7V355.6L267.2,355.6z M273.8,355.6h5.3v1.8h-3.5v1.8h3.5v1.8h-3.5v2.6h3.5v1.8h-5.3  V355.6L273.8,355.6z M289.9,357.2l-1.3,1.3c-0.8-0.9-1.8-1.3-2.9-1.3c-1,0-1.8,0.3-2.4,1c-0.7,0.6-1,1.4-1,2.3s0.3,1.7,1,2.4  c0.7,0.7,1.5,1,2.5,1c0.6,0,1.2-0.1,1.6-0.4s0.8-0.7,1.1-1.3h-2.8v-1.7h4.9v0.4c0,0.9-0.2,1.7-0.7,2.4c-0.4,0.8-1,1.3-1.7,1.8  c-0.7,0.4-1.5,0.6-2.5,0.6s-1.9-0.2-2.7-0.7c-0.8-0.4-1.4-1.1-1.9-1.9s-0.7-1.7-0.7-2.6c0-1.3,0.4-2.4,1.3-3.4c1-1.1,2.3-1.7,4-1.7  c0.8,0,1.6,0.2,2.4,0.5C288.7,356.1,289.3,356.6,289.9,357.2L289.9,357.2z M292.4,355.6h2c1.1,0,1.8,0.1,2.3,0.3  c0.5,0.2,0.8,0.5,1.1,1c0.3,0.5,0.4,1,0.4,1.6s-0.1,1.2-0.5,1.6c-0.3,0.4-0.8,0.8-1.4,1l2.3,4.3h-2l-2.2-4.1h-0.2v4.1h-1.8  L292.4,355.6L292.4,355.6z M294.3,359.4h0.6c0.6,0,1-0.1,1.2-0.2c0.2-0.2,0.3-0.4,0.3-0.8c0-0.2-0.1-0.4-0.2-0.6s-0.3-0.3-0.4-0.3  c-0.2-0.1-0.5-0.1-1-0.1h-0.5V359.4L294.3,359.4z M303.2,355.6h1.9l3.8,9.8H307l-0.8-2h-4l-0.8,2h-1.9L303.2,355.6L303.2,355.6z   M304.1,358.2l-1.3,3.4h2.6L304.1,358.2L304.1,358.2z M310.2,355.6h1.8v8h2.7v1.8h-4.6v-9.8H310.2z M316.2,355.6h5.3v1.8H318v1.8  h3.5v1.8H318v2.6h3.5v1.8h-5.3V355.6L316.2,355.6z M328.4,356.9l-1.4,1.2c-0.5-0.7-1-1-1.5-1c-0.3,0-0.4,0.1-0.6,0.2  s-0.2,0.3-0.2,0.4c0,0.2,0.1,0.3,0.2,0.5s0.6,0.6,1.4,1.2c0.7,0.6,1.1,1,1.3,1.1c0.4,0.4,0.6,0.7,0.8,1.1c0.2,0.4,0.2,0.7,0.2,1.1  c0,0.8-0.3,1.5-0.8,2s-1.3,0.8-2.2,0.8c-0.7,0-1.3-0.2-1.8-0.5s-1-0.9-1.3-1.6l1.6-1c0.5,0.9,1,1.3,1.6,1.3c0.3,0,0.6-0.1,0.8-0.3  c0.2-0.2,0.3-0.4,0.3-0.6s-0.1-0.4-0.3-0.7c-0.2-0.2-0.5-0.6-1.1-1c-1.1-0.9-1.8-1.5-2.1-2c-0.3-0.5-0.5-0.9-0.5-1.4  c0-0.7,0.3-1.3,0.8-1.7c0.5-0.5,1.2-0.7,1.9-0.7c0.5,0,1,0.1,1.4,0.3C327.4,355.9,327.9,356.3,328.4,356.9L328.4,356.9z M331,363.5  l1.3,0.7l-1.6,2.8l-0.9-0.4L331,363.5L331,363.5z M338,355.6h5.3v1.8h-3.5v1.8h3.5v1.8h-3.5v2.6h3.5v1.8H338V355.6L338,355.6z   M345,355.6h4.8v1.8h-3v1.8h3v1.8h-3v4.4H345V355.6L345,355.6z M351.4,355.6h1.8v9.8h-1.8V355.6L351.4,355.6z M364.3,357.3  l-1.3,1.2c-0.9-0.9-1.9-1.4-3-1.4c-0.9,0-1.7,0.3-2.4,1c-0.6,0.6-1,1.4-1,2.3c0,0.7,0.1,1.2,0.4,1.7s0.7,0.9,1.2,1.2  c0.5,0.3,1.1,0.4,1.7,0.4c0.5,0,1-0.1,1.5-0.3c0.4-0.2,0.9-0.6,1.5-1.1l1.3,1.3c-0.7,0.7-1.4,1.2-2,1.5s-1.4,0.4-2.2,0.4  c-1.5,0-2.8-0.5-3.7-1.4c-1-1-1.4-2.2-1.4-3.7c0-1,0.2-1.8,0.7-2.6c0.4-0.8,1.1-1.4,1.9-1.8c0.8-0.5,1.7-0.7,2.6-0.7  c0.8,0,1.6,0.2,2.3,0.5C363.1,356.2,363.8,356.7,364.3,357.3L364.3,357.3z M365.8,355.6h1.8v9.8h-1.8V355.6L365.8,355.6z   M369.8,355.6h5.3v1.8h-3.5v1.8h3.5v1.8h-3.5v2.6h3.5v1.8h-5.3V355.6L369.8,355.6z M376.8,355.6h1.8l4.2,6.4v-6.4h1.8v9.8h-1.8  l-4.2-6.4v6.4h-1.8V355.6L376.8,355.6z M385.9,355.6h5.4v1.8h-1.8v7.9h-1.9v-7.9h-1.7V355.6L385.9,355.6z M392.6,355.6h5.3v1.8  h-3.5v1.8h3.5v1.8h-3.5v2.6h3.5v1.8h-5.3V355.6L392.6,355.6z M404.8,356.9l-1.4,1.2c-0.5-0.7-1-1-1.5-1c-0.3,0-0.4,0.1-0.6,0.2  s-0.2,0.3-0.2,0.4c0,0.2,0.1,0.3,0.2,0.5s0.6,0.6,1.4,1.2c0.7,0.6,1.1,1,1.3,1.1c0.4,0.4,0.6,0.7,0.8,1.1c0.2,0.4,0.2,0.7,0.2,1.1  c0,0.8-0.3,1.5-0.8,2s-1.3,0.8-2.2,0.8c-0.7,0-1.3-0.2-1.8-0.5s-1-0.9-1.3-1.6l1.6-1c0.5,0.9,1,1.3,1.6,1.3c0.3,0,0.6-0.1,0.8-0.3  c0.2-0.2,0.3-0.4,0.3-0.6s-0.1-0.4-0.3-0.7c-0.2-0.2-0.5-0.6-1.1-1c-1.1-0.9-1.8-1.5-2.1-2c-0.3-0.5-0.5-0.9-0.5-1.4  c0-0.7,0.3-1.3,0.8-1.7c0.5-0.5,1.2-0.7,1.9-0.7c0.5,0,1,0.1,1.4,0.3C403.8,355.9,404.3,356.3,404.8,356.9L404.8,356.9z   M409.8,355.6h2l1.8,3.5l1.8-3.5h2l-2.9,5.5v4.2h-1.9v-4.2L409.8,355.6L409.8,355.6z M427.9,356.9l-1.4,1.2c-0.5-0.7-1-1-1.5-1  c-0.3,0-0.4,0.1-0.6,0.2s-0.2,0.3-0.2,0.4c0,0.2,0.1,0.3,0.2,0.5s0.6,0.6,1.4,1.2c0.7,0.6,1.1,1,1.3,1.1c0.4,0.4,0.6,0.7,0.8,1.1  c0.2,0.4,0.2,0.7,0.2,1.1c0,0.8-0.3,1.5-0.8,2s-1.3,0.8-2.2,0.8c-0.7,0-1.3-0.2-1.8-0.5s-1-0.9-1.3-1.6l1.6-1  c0.5,0.9,1,1.3,1.6,1.3c0.3,0,0.6-0.1,0.8-0.3c0.2-0.2,0.3-0.4,0.3-0.6s-0.1-0.4-0.3-0.7c-0.2-0.2-0.5-0.6-1.1-1  c-1.1-0.9-1.8-1.5-2.1-2c-0.3-0.5-0.5-0.9-0.5-1.4c0-0.7,0.3-1.3,0.8-1.7c0.5-0.5,1.2-0.7,1.9-0.7c0.5,0,1,0.1,1.4,0.3  C426.9,355.9,427.4,356.3,427.9,356.9L427.9,356.9z M434.4,355.4c1.4,0,2.6,0.5,3.6,1.5s1.5,2.2,1.5,3.7c0,1.4-0.5,2.6-1.5,3.6  s-2.2,1.5-3.6,1.5c-1.5,0-2.7-0.5-3.7-1.5s-1.5-2.2-1.5-3.6c0-0.9,0.2-1.8,0.7-2.6c0.4-0.8,1.1-1.4,1.9-1.9  C432.7,355.6,433.5,355.4,434.4,355.4L434.4,355.4z M434.4,357.2c-0.9,0-1.7,0.3-2.3,1c-0.6,0.6-0.9,1.4-0.9,2.4  c0,1.1,0.4,1.9,1.2,2.6c0.6,0.5,1.3,0.7,2.1,0.7c0.9,0,1.6-0.3,2.2-1c0.6-0.6,0.9-1.4,0.9-2.3s-0.3-1.7-0.9-2.4  S435.3,357.2,434.4,357.2L434.4,357.2z M446.4,356.9l-1.4,1.2c-0.5-0.7-1-1-1.5-1c-0.3,0-0.4,0.1-0.6,0.2s-0.2,0.3-0.2,0.4  c0,0.2,0.1,0.3,0.2,0.5s0.6,0.6,1.4,1.2c0.7,0.6,1.1,1,1.3,1.1c0.4,0.4,0.6,0.7,0.8,1.1c0.2,0.4,0.2,0.7,0.2,1.1  c0,0.8-0.3,1.5-0.8,2s-1.3,0.8-2.2,0.8c-0.7,0-1.3-0.2-1.8-0.5s-1-0.9-1.3-1.6l1.6-1c0.5,0.9,1,1.3,1.6,1.3c0.3,0,0.6-0.1,0.8-0.3  c0.2-0.2,0.3-0.4,0.3-0.6s-0.1-0.4-0.3-0.7c-0.2-0.2-0.5-0.6-1.1-1c-1.1-0.9-1.8-1.5-2.1-2c-0.3-0.5-0.5-0.9-0.5-1.4  c0-0.7,0.3-1.3,0.8-1.7c0.5-0.5,1.2-0.7,1.9-0.7c0.5,0,1,0.1,1.4,0.3C445.4,355.9,445.9,356.3,446.4,356.9L446.4,356.9z   M447.4,355.6h5.4v1.8H451v7.9h-1.9v-7.9h-1.7V355.6L447.4,355.6z M454,355.6h5.3v1.8h-3.5v1.8h3.5v1.8h-3.5v2.6h3.5v1.8H454V355.6  L454,355.6z M461.1,355.6h1.8l4.2,6.4v-6.4h1.8v9.8h-1.8l-4.2-6.4v6.4h-1.8V355.6L461.1,355.6z M471,355.6h1.8v9.8H471V355.6  L471,355.6z M474.9,365.4v-9.8h1.5c0.9,0,1.5,0.1,2,0.2c0.6,0.2,1.1,0.4,1.4,0.9c0.3,0.4,0.5,0.9,0.5,1.5c0,0.4-0.1,0.7-0.2,1  c-0.2,0.3-0.4,0.6-0.8,0.9c0.6,0.3,1,0.6,1.3,1s0.4,0.9,0.4,1.5c0,0.5-0.1,1.1-0.4,1.5s-0.7,0.8-1.1,1s-1.1,0.3-1.9,0.3H474.9  L474.9,365.4z M476.8,357.4v2.1h0.4c0.5,0,0.8-0.1,1-0.3c0.2-0.2,0.3-0.4,0.3-0.8c0-0.3-0.1-0.5-0.3-0.7c-0.2-0.2-0.5-0.3-1-0.3  L476.8,357.4L476.8,357.4z M476.8,361.1v2.5h0.5c0.8,0,1.3-0.1,1.6-0.3s0.4-0.5,0.4-0.8c0-0.4-0.2-0.8-0.5-1s-0.8-0.4-1.6-0.4  L476.8,361.1L476.8,361.1z M482.8,355.6h1.8v8h2.7v1.8h-4.6v-9.8H482.8z M488.8,355.6h5.3v1.8h-3.5v1.8h3.5v1.8h-3.5v2.6h3.5v1.8  h-5.3V355.6L488.8,355.6z M501,356.9l-1.4,1.2c-0.5-0.7-1-1-1.5-1c-0.3,0-0.4,0.1-0.6,0.2c-0.1,0.1-0.2,0.3-0.2,0.4  c0,0.2,0.1,0.3,0.2,0.5s0.6,0.6,1.4,1.2c0.7,0.6,1.1,1,1.3,1.1c0.4,0.4,0.6,0.7,0.8,1.1c0.2,0.4,0.2,0.7,0.2,1.1  c0,0.8-0.3,1.5-0.8,2s-1.3,0.8-2.2,0.8c-0.7,0-1.3-0.2-1.8-0.5s-1-0.9-1.3-1.6l1.6-1c0.5,0.9,1,1.3,1.6,1.3c0.3,0,0.6-0.1,0.8-0.3  c0.2-0.2,0.3-0.4,0.3-0.6s-0.1-0.4-0.3-0.7c-0.2-0.2-0.5-0.6-1.1-1c-1.1-0.9-1.8-1.5-2.1-2c-0.3-0.5-0.5-0.9-0.5-1.4  c0-0.7,0.3-1.3,0.8-1.7c0.5-0.5,1.2-0.7,1.9-0.7c0.5,0,1,0.1,1.4,0.3C500,355.9,500.5,356.3,501,356.9L501,356.9z"></path>	<path class="st0" d="M161.9,290.5c0-3.3,0.6-6.3,1.8-9.1c1.2-2.8,2.8-5.2,4.9-7.3c2.1-2.1,4.5-3.7,7.3-4.9c2.8-1.2,5.8-1.7,9-1.7  c3.4,0,6.6,0.7,9.5,2.1s5.4,3.2,7.5,5.6c0.1,0.2,0.2,0.4,0.2,0.6s-0.1,0.4-0.3,0.5l-5,4.3c-0.2,0.1-0.4,0.2-0.6,0.2  c-0.2,0-0.4-0.1-0.5-0.3c-1.4-1.6-3-2.9-4.9-3.8c-1.9-1-4-1.4-6.2-1.4c-2,0-3.9,0.5-5.6,1.3c-1.8,0.8-3.3,1.9-4.6,3.4  c-1.3,1.4-2.3,3.1-3.1,4.9c-0.8,1.9-1.1,3.8-1.1,6c0,2.1,0.4,4.1,1.2,6s1.9,3.5,3.2,4.9c1.4,1.4,2.9,2.5,4.7,3.3s3.7,1.2,5.7,1.2  c2.1,0,4.1-0.5,6-1.5c1.9-0.9,3.5-2.2,4.8-3.8c0.1-0.2,0.3-0.3,0.5-0.3s0.4,0.1,0.6,0.2l5,4.3c0.2,0.1,0.3,0.3,0.3,0.5  s0,0.4-0.2,0.6c-2.2,2.4-4.7,4.3-7.7,5.7c-3,1.4-6.2,2-9.7,2c-3.2,0-6.2-0.6-8.9-1.8c-2.8-1.2-5.2-2.9-7.2-4.9  c-2-2.1-3.6-4.6-4.8-7.4C162.5,296.8,161.9,293.7,161.9,290.5L161.9,290.5z M210,268.5h6.5c0.5,0,0.8,0.3,0.8,0.8v42.9  c0,0.5-0.3,0.8-0.8,0.8H210c-0.2,0-0.4-0.1-0.5-0.2s-0.2-0.3-0.2-0.5v-42.9c0-0.2,0.1-0.4,0.2-0.5  C209.6,268.5,209.8,268.5,210,268.5L210,268.5z M224.3,269.1c0-0.2,0.1-0.4,0.2-0.5c0.1-0.1,0.3-0.2,0.5-0.2h27.6  c0.8,0,1.5,0.3,2.1,1l4.7,6.2c0.2,0.2,0.2,0.4,0.1,0.6s-0.3,0.3-0.5,0.3h-14.2V312c0,0.5-0.3,0.8-0.8,0.8h-6.5  c-0.5,0-0.8-0.3-0.8-0.8v-35.6H225c-0.2,0-0.4-0.1-0.5-0.2s-0.2-0.3-0.2-0.5V269.1L224.3,269.1z M265.2,268.5h6.5  c0.5,0,0.8,0.3,0.8,0.8v42.9c0,0.5-0.3,0.8-0.8,0.8h-6.5c-0.2,0-0.4-0.1-0.5-0.2s-0.2-0.3-0.2-0.5v-42.9c0-0.2,0.1-0.4,0.2-0.5  C264.8,268.5,265,268.5,265.2,268.5L265.2,268.5z M281.7,269.2c0-0.2,0.1-0.4,0.2-0.5s0.3-0.2,0.5-0.2h27.4c0.5,0,0.8,0.3,0.8,0.8  v6.5c0,0.5-0.3,0.8-0.8,0.8h-20.1v10.2h15.9c0.5,0,0.8,0.3,0.8,0.8v6.5c0,0.5-0.3,0.8-0.8,0.8h-15.9V305h22c0.3,0,0.4,0.1,0.5,0.3  c0.1,0.2,0.1,0.4-0.1,0.6l-4.7,6.2c-0.5,0.7-1.2,1-2.1,1h-23c-0.2,0-0.4-0.1-0.5-0.2s-0.2-0.3-0.2-0.5v-43.2H281.7L281.7,269.2z   M317.3,281.5c0-2,0.4-3.8,1.2-5.5c0.8-1.7,1.9-3.2,3.4-4.4c1.4-1.2,3.1-2.2,4.9-2.9c1.9-0.7,3.9-1.1,6-1.1c3.3,0,6.2,0.6,8.6,1.7  c2.4,1.2,4.3,2.5,5.5,4c0.3,0.4,0.3,0.7-0.1,1l-4.4,4.6c-0.2,0.2-0.4,0.3-0.6,0.3s-0.4-0.1-0.6-0.3c-0.4-0.4-0.9-0.8-1.4-1.3  c-0.6-0.4-1.2-0.8-2-1.2c-0.7-0.4-1.5-0.7-2.4-0.9c-0.8-0.2-1.7-0.3-2.6-0.3c-1.1,0-2,0.2-2.9,0.5s-1.6,0.7-2.2,1.2  s-1.1,1.1-1.4,1.8c-0.3,0.7-0.5,1.4-0.5,2.2c0,1.2,0.4,2.3,1.2,3.2c0.8,0.9,2,1.5,3.6,1.8l6.2,1.2c2,0.4,3.8,1,5.4,1.8  s2.8,1.8,3.9,3c1,1.1,1.8,2.4,2.4,3.8c0.5,1.4,0.8,2.9,0.8,4.5c0,1.7-0.4,3.4-1.1,5s-1.7,3.1-3.1,4.4s-3.1,2.4-5,3.1  c-2,0.8-4.3,1.2-6.9,1.2c-1.8,0-3.5-0.2-5.1-0.6s-3-0.9-4.3-1.5s-2.4-1.3-3.4-2s-1.8-1.5-2.4-2.2c-0.3-0.3-0.3-0.6,0-1l4-5.1  c0.1-0.2,0.3-0.3,0.5-0.4c0.2,0,0.4,0.1,0.6,0.2c0.6,0.5,1.2,1.1,2,1.7c0.7,0.6,1.5,1.1,2.3,1.5c0.8,0.5,1.8,0.8,2.7,1.1  s2,0.4,3.1,0.4c2.3,0,4.1-0.5,5.3-1.5c1.2-1,1.8-2.3,1.8-3.9c0-1.3-0.5-2.4-1.4-3.3c-0.9-1-2.2-1.6-4-1.9l-6.2-1.3  c-3.6-0.7-6.4-2.2-8.5-4.4C318.4,287.6,317.3,284.8,317.3,281.5L317.3,281.5z"></path>	<g>		<defs>			<path id="SVGID_1_" d="M397.4,288.4h-18.1v-11.2h-9.1v-25.8h-8.9v-48.3h-3.5v-7.9h-4.4l-0.2-2.9l-0.2,2.9h-4.4v7.9h-3.3v48.3h-11    v-73H307v61.9h-23.3v-80H279V149h-19.3v11.3h-2v78.6c-17.9-2.7-18.8-25-18.3-39.3h-17.7v49.5H204c0-1.1,0-59.2,0-60.3    c10.3-5.4,5.9-22.1-5.8-21.8c-11.7-0.4-16.2,16.5-5.8,21.8c0,0.8,0,47,0,47.9h-18.9v-24.3l-13.1-21.3l-13.1,21.4v64.6h-13.5v11.2    H114c-1.1,5.5-9.6,4.6-9.5-1c-0.1-5.6,8.4-6.5,9.5-1h17.8v-11.2h13.5V212l15.1-24.6l15.1,24.6v22.9h14.9v-44.8    c-10.9-7.1-5.3-25.4,7.8-25c13.1-0.4,18.7,17.9,7.8,25v57.2h13.7v-49.5h21.7c-0.1,13.2-1,33.5,14.3,38.7v-78.2h2V147H281v11.3    h4.7v80H305v-61.9h31.5v73h6.9v-48.3h3.3v-7.9h4.6l1.3-16.9h1.9l1,16.9h4.5v7.9h3.5v48.3h8.9v25.8h9.1v11.2h16.1    c1.1-5.5,9.6-4.6,9.5,1C407.2,293.1,398.3,293.8,397.4,288.4L397.4,288.4z"></path>		</defs>					<linearGradient id="SVGID_00000034056697880849992890000015948138069788789394_" gradientUnits="userSpaceOnUse" x1="104.4994" y1="219.5468" x2="407.1017" y2="219.5468">			<stop offset="0" style="stop-color:#28A3D3"></stop>			<stop offset="0.1935" style="stop-color:#43CE4E"></stop>			<stop offset="0.3945" style="stop-color:#FDC81F"></stop>			<stop offset="0.6256" style="stop-color:#F19A58"></stop>			<stop offset="0.8216" style="stop-color:#D87887"></stop>			<stop offset="1" style="stop-color:#479ECC"></stop>		</linearGradient>		<use xlink:href="#SVGID_1_" style="overflow:visible;fill:url(#SVGID_00000034056697880849992890000015948138069788789394_);"></use>		<clipPath id="SVGID_00000053546624937754980950000014664556104039425469_">			<use xlink:href="#SVGID_1_" style="overflow:visible;"></use>		</clipPath>	</g></g></svg>